
<svg width="48" height="48" viewBox="0 0 12.7 12.7" xmlns="http://www.w3.org/2000/svg"><rect style="fill:none;stroke:#ccc;stroke-width:.846667;stroke-linejoin:miter;stroke-miterlimit:4;stroke-dasharray:none;stroke-opacity:1" width="10.309" height="10.309" x="1.195" y="1.195" ry="1.627"/><path style="fill:#777;fill-opacity:1;stroke:#d60e0e;stroke-width:0;stroke-dasharray:none;stroke-opacity:.587079" d="M10.572 8.469z"/><g transform="translate(-8.362 -3.857) scale(1.64092)" style="fill:#fff;fill-opacity:1"><g style="fill:#fff;fill-opacity:1"><path style="color:#000;fill:#fff;fill-opacity:1;stroke:#d60e0e;stroke-width:0;stroke-dasharray:none;stroke-opacity:.587079" d="M.2-10.273a1.131 1.131 0 1 1-2.262 0 1.131 1.131 0 0 1 2.262 0z" transform="rotate(123.392)"/><path style="color:#000;fill:#fff;fill-opacity:1;stroke:#d60e0e;stroke-width:0;stroke-dasharray:none;stroke-opacity:.587079" d="M-.931-11.44A1.167 1.167 0 1 0-.93-9.105a1.167 1.167 0 0 0-.002-2.333zm0 .072a1.095 1.095 0 1 1 .001 2.19 1.095 1.095 0 0 1-.001-2.19z" transform="rotate(123.392)"/></g><a style="fill:#fff;fill-opacity:1;stroke:#d60e0e;stroke-width:0;stroke-dasharray:none;stroke-opacity:.587079" transform="matrix(.43383 0 0 .43383 16.311 10.764)"><path style="fill:#fff;fill-opacity:1;stroke:#d60e0e;stroke-width:0;stroke-dasharray:none;stroke-opacity:.587079" d="M-17.42-11.642v6.18l.772.773.773-.772-.773-.516.773-.373v-.53l-.773-.452v-.248l.773-.508-.773-.492.773-.416v-2.646z"/></a></g></svg>